<?xml version="1.0" encoding="UTF-8" standalone="no"?>
<!DOCTYPE svg PUBLIC "-//W3C//DTD SVG 1.1//EN"
 "http://www.w3.org/Graphics/SVG/1.1/DTD/svg11.dtd">
<!-- Generated by graphviz version 2.40.1 (20161225.0304)
 -->
<!-- Title: dependencies Pages: 1 -->
<svg width="4879pt" height="284pt"
 viewBox="0.00 0.00 4879.00 284.00" xmlns="http://www.w3.org/2000/svg" xmlns:xlink="http://www.w3.org/1999/xlink">
<g id="graph0" class="graph" transform="scale(1 1) rotate(0) translate(4 280)">
<title>dependencies</title>
<polygon fill="#ffffff" stroke="transparent" points="-4,4 -4,-280 4875,-280 4875,4 -4,4"/>
<text text-anchor="start" x="2414.5091" y="-42.4" font-family="sans-serif" font-weight="bold" font-size="14.00" fill="#000000">Legend</text>
<polygon fill="#ffffb3" stroke="transparent" points="2201.5,-10 2201.5,-30 2221.5,-30 2221.5,-10 2201.5,-10"/>
<text text-anchor="start" x="2225.129" y="-15.4" font-family="sans-serif" font-size="14.00" fill="#000000"> &#160;Declarations</text>
<polygon fill="#8dd3c7" stroke="transparent" points="2314.5,-10 2314.5,-30 2334.5,-30 2334.5,-10 2314.5,-10"/>
<text text-anchor="start" x="2338.2251" y="-15.4" font-family="sans-serif" font-size="14.00" fill="#000000"> &#160;Module</text>
<polygon fill="#80b1d3" stroke="transparent" points="2400.5,-10 2400.5,-30 2420.5,-30 2420.5,-10 2400.5,-10"/>
<text text-anchor="start" x="2424.2812" y="-15.4" font-family="sans-serif" font-size="14.00" fill="#000000"> &#160;Bootstrap</text>
<polygon fill="#fdb462" stroke="transparent" points="2497.5,-10 2497.5,-30 2517.5,-30 2517.5,-10 2497.5,-10"/>
<text text-anchor="start" x="2521.1732" y="-15.4" font-family="sans-serif" font-size="14.00" fill="#000000"> &#160;Providers</text>
<polygon fill="#fb8072" stroke="transparent" points="2593.5,-10 2593.5,-30 2613.5,-30 2613.5,-10 2593.5,-10"/>
<text text-anchor="start" x="2617.2258" y="-15.4" font-family="sans-serif" font-size="14.00" fill="#000000"> &#160;Exports</text>
<g id="clust1" class="cluster">
<title>cluster_AppModule</title>
<polygon fill="none" stroke="#000000" stroke-dasharray="1,5" points="8,-70 8,-268 4863,-268 4863,-70 8,-70"/>
</g>
<g id="clust2" class="cluster">
<title>cluster_AppModule_declarations</title>
<polygon fill="none" stroke="#000000" points="1040,-78 1040,-130 4855,-130 4855,-78 1040,-78"/>
</g>
<g id="clust25" class="cluster">
<title>cluster_AppModule_imports</title>
<polygon fill="none" stroke="#000000" points="888,-78 888,-130 1032,-130 1032,-78 888,-78"/>
</g>
<g id="clust27" class="cluster">
<title>cluster_AppModule_bootstrap</title>
<polygon fill="none" stroke="#000000" points="2282,-208 2282,-260 2406,-260 2406,-208 2282,-208"/>
</g>
<g id="clust28" class="cluster">
<title>cluster_AppModule_providers</title>
<polygon fill="none" stroke="#000000" points="16,-78 16,-130 880,-130 880,-78 16,-78"/>
</g>
<!-- AdminPortalComponent -->
<g id="node1" class="node">
<title>AdminPortalComponent</title>
<polygon fill="#ffffb3" stroke="#000000" points="4846.6596,-122 4693.3404,-122 4693.3404,-86 4846.6596,-86 4846.6596,-122"/>
<text text-anchor="middle" x="4770" y="-99.8" font-family="Times,serif" font-size="14.00" fill="#000000">AdminPortalComponent</text>
</g>
<!-- AppModule -->
<g id="node23" class="node">
<title>AppModule</title>
<polygon fill="#8dd3c7" stroke="#000000" points="2385.6571,-187 2382.6571,-191 2361.6571,-191 2358.6571,-187 2302.3429,-187 2302.3429,-151 2385.6571,-151 2385.6571,-187"/>
<text text-anchor="middle" x="2344" y="-164.8" font-family="Times,serif" font-size="14.00" fill="#000000">AppModule</text>
</g>
<!-- AdminPortalComponent&#45;&gt;AppModule -->
<g id="edge1" class="edge">
<title>AdminPortalComponent&#45;&gt;AppModule</title>
<path fill="none" stroke="#000000" d="M4770,-122.3802C4770,-146.2785 4770,-185 4770,-185 4770,-185 2395.8522,-185 2395.8522,-185"/>
<polygon fill="#000000" stroke="#000000" points="2395.8522,-181.5001 2385.8522,-185 2395.8522,-188.5001 2395.8522,-181.5001"/>
</g>
<!-- AppComponent -->
<g id="node2" class="node">
<title>AppComponent</title>
<polygon fill="#ffffb3" stroke="#000000" points="4674.9399,-122 4569.0601,-122 4569.0601,-86 4674.9399,-86 4674.9399,-122"/>
<text text-anchor="middle" x="4622" y="-99.8" font-family="Times,serif" font-size="14.00" fill="#000000">AppComponent</text>
</g>
<!-- AppComponent&#45;&gt;AppModule -->
<g id="edge2" class="edge">
<title>AppComponent&#45;&gt;AppModule</title>
<path fill="none" stroke="#000000" d="M4622,-122.0908C4622,-145.1328 4622,-182 4622,-182 4622,-182 2395.9766,-182 2395.9766,-182"/>
<polygon fill="#000000" stroke="#000000" points="2395.9766,-178.5001 2385.9766,-182 2395.9765,-185.5001 2395.9766,-178.5001"/>
</g>
<!-- HomeComponent -->
<g id="node3" class="node">
<title>HomeComponent</title>
<polygon fill="#ffffb3" stroke="#000000" points="4551.5451,-122 4436.4549,-122 4436.4549,-86 4551.5451,-86 4551.5451,-122"/>
<text text-anchor="middle" x="4494" y="-99.8" font-family="Times,serif" font-size="14.00" fill="#000000">HomeComponent</text>
</g>
<!-- HomeComponent&#45;&gt;AppModule -->
<g id="edge3" class="edge">
<title>HomeComponent&#45;&gt;AppModule</title>
<path fill="none" stroke="#000000" d="M4494,-122.0109C4494,-144.4852 4494,-180 4494,-180 4494,-180 2395.983,-180 2395.983,-180"/>
<polygon fill="#000000" stroke="#000000" points="2395.9831,-176.5001 2385.983,-180 2395.983,-183.5001 2395.9831,-176.5001"/>
</g>
<!-- LoginComponent -->
<g id="node4" class="node">
<title>LoginComponent</title>
<polygon fill="#ffffb3" stroke="#000000" points="4418.2758,-122 4303.7242,-122 4303.7242,-86 4418.2758,-86 4418.2758,-122"/>
<text text-anchor="middle" x="4361" y="-99.8" font-family="Times,serif" font-size="14.00" fill="#000000">LoginComponent</text>
</g>
<!-- LoginComponent&#45;&gt;AppModule -->
<g id="edge4" class="edge">
<title>LoginComponent&#45;&gt;AppModule</title>
<path fill="none" stroke="#000000" d="M4361,-122.0449C4361,-143.6623 4361,-177 4361,-177 4361,-177 2395.6649,-177 2395.6649,-177"/>
<polygon fill="#000000" stroke="#000000" points="2395.665,-173.5001 2385.6649,-177 2395.6649,-180.5001 2395.665,-173.5001"/>
</g>
<!-- PlayControlsComponent -->
<g id="node5" class="node">
<title>PlayControlsComponent</title>
<polygon fill="#ffffb3" stroke="#000000" points="4285.4438,-122 4130.5562,-122 4130.5562,-86 4285.4438,-86 4285.4438,-122"/>
<text text-anchor="middle" x="4208" y="-99.8" font-family="Times,serif" font-size="14.00" fill="#000000">PlayControlsComponent</text>
</g>
<!-- PlayControlsComponent&#45;&gt;AppModule -->
<g id="edge5" class="edge">
<title>PlayControlsComponent&#45;&gt;AppModule</title>
<path fill="none" stroke="#000000" d="M4208,-122.2843C4208,-143.3211 4208,-175 4208,-175 4208,-175 2395.989,-175 2395.989,-175"/>
<polygon fill="#000000" stroke="#000000" points="2395.9891,-171.5001 2385.989,-175 2395.989,-178.5001 2395.9891,-171.5001"/>
</g>
<!-- PlaylistCollectionCreateComponent -->
<g id="node6" class="node">
<title>PlaylistCollectionCreateComponent</title>
<polygon fill="#ffffb3" stroke="#000000" points="4113.1965,-122 3894.8035,-122 3894.8035,-86 4113.1965,-86 4113.1965,-122"/>
<text text-anchor="middle" x="4004" y="-99.8" font-family="Times,serif" font-size="14.00" fill="#000000">PlaylistCollectionCreateComponent</text>
</g>
<!-- PlaylistCollectionCreateComponent&#45;&gt;AppModule -->
<g id="edge6" class="edge">
<title>PlaylistCollectionCreateComponent&#45;&gt;AppModule</title>
<path fill="none" stroke="#000000" d="M4004,-122.2228C4004,-142.3652 4004,-172 4004,-172 4004,-172 2395.8642,-172 2395.8642,-172"/>
<polygon fill="#000000" stroke="#000000" points="2395.8642,-168.5001 2385.8642,-172 2395.8641,-175.5001 2395.8642,-168.5001"/>
</g>
<!-- PlaylistCollectionDeleteComponent -->
<g id="node7" class="node">
<title>PlaylistCollectionDeleteComponent</title>
<polygon fill="#ffffb3" stroke="#000000" points="3877.1965,-122 3658.8035,-122 3658.8035,-86 3877.1965,-86 3877.1965,-122"/>
<text text-anchor="middle" x="3768" y="-99.8" font-family="Times,serif" font-size="14.00" fill="#000000">PlaylistCollectionDeleteComponent</text>
</g>
<!-- PlaylistCollectionDeleteComponent&#45;&gt;AppModule -->
<g id="edge7" class="edge">
<title>PlaylistCollectionDeleteComponent&#45;&gt;AppModule</title>
<path fill="none" stroke="#000000" d="M3768,-122.1061C3768,-141.3391 3768,-169 3768,-169 3768,-169 2395.8464,-169 2395.8464,-169"/>
<polygon fill="#000000" stroke="#000000" points="2395.8465,-165.5001 2385.8464,-169 2395.8464,-172.5001 2395.8465,-165.5001"/>
</g>
<!-- PlaylistCollectionDetailComponent -->
<g id="node8" class="node">
<title>PlaylistCollectionDetailComponent</title>
<polygon fill="#ffffb3" stroke="#000000" points="3640.8724,-122 3425.1276,-122 3425.1276,-86 3640.8724,-86 3640.8724,-122"/>
<text text-anchor="middle" x="3533" y="-99.8" font-family="Times,serif" font-size="14.00" fill="#000000">PlaylistCollectionDetailComponent</text>
</g>
<!-- PlaylistCollectionDetailComponent&#45;&gt;AppModule -->
<g id="edge8" class="edge">
<title>PlaylistCollectionDetailComponent&#45;&gt;AppModule</title>
<path fill="none" stroke="#000000" d="M3533,-122.2222C3533,-140.8285 3533,-167 3533,-167 3533,-167 2395.9679,-167 2395.9679,-167"/>
<polygon fill="#000000" stroke="#000000" points="2395.9679,-163.5001 2385.9679,-167 2395.9679,-170.5001 2395.9679,-163.5001"/>
</g>
<!-- PlaylistCollectionIndexComponent -->
<g id="node9" class="node">
<title>PlaylistCollectionIndexComponent</title>
<polygon fill="#ffffb3" stroke="#000000" points="3406.5405,-122 3193.4595,-122 3193.4595,-86 3406.5405,-86 3406.5405,-122"/>
<text text-anchor="middle" x="3300" y="-99.8" font-family="Times,serif" font-size="14.00" fill="#000000">PlaylistCollectionIndexComponent</text>
</g>
<!-- PlaylistCollectionIndexComponent&#45;&gt;AppModule -->
<g id="edge9" class="edge">
<title>PlaylistCollectionIndexComponent&#45;&gt;AppModule</title>
<path fill="none" stroke="#000000" d="M3300,-122.002C3300,-139.6754 3300,-164 3300,-164 3300,-164 2395.6928,-164 2395.6928,-164"/>
<polygon fill="#000000" stroke="#000000" points="2395.6929,-160.5001 2385.6928,-164 2395.6928,-167.5001 2395.6929,-160.5001"/>
</g>
<!-- PlaylistComponent -->
<g id="node10" class="node">
<title>PlaylistComponent</title>
<polygon fill="#ffffb3" stroke="#000000" points="3175.8371,-122 3052.1629,-122 3052.1629,-86 3175.8371,-86 3175.8371,-122"/>
<text text-anchor="middle" x="3114" y="-99.8" font-family="Times,serif" font-size="14.00" fill="#000000">PlaylistComponent</text>
</g>
<!-- PlaylistComponent&#45;&gt;AppModule -->
<g id="edge10" class="edge">
<title>PlaylistComponent&#45;&gt;AppModule</title>
<path fill="none" stroke="#000000" d="M3114,-122.0336C3114,-139.0597 3114,-162 3114,-162 3114,-162 2395.6716,-162 2395.6716,-162"/>
<polygon fill="#000000" stroke="#000000" points="2395.6716,-158.5001 2385.6716,-162 2395.6715,-165.5001 2395.6716,-158.5001"/>
</g>
<!-- PlaylistCreateComponent -->
<g id="node11" class="node">
<title>PlaylistCreateComponent</title>
<polygon fill="#ffffb3" stroke="#000000" points="3033.8683,-122 2874.1317,-122 2874.1317,-86 3033.8683,-86 3033.8683,-122"/>
<text text-anchor="middle" x="2954" y="-99.8" font-family="Times,serif" font-size="14.00" fill="#000000">PlaylistCreateComponent</text>
</g>
<!-- PlaylistCreateComponent&#45;&gt;AppModule -->
<g id="edge11" class="edge">
<title>PlaylistCreateComponent&#45;&gt;AppModule</title>
<path fill="none" stroke="#000000" d="M2954,-122.0091C2954,-138.0494 2954,-159 2954,-159 2954,-159 2395.9278,-159 2395.9278,-159"/>
<polygon fill="#000000" stroke="#000000" points="2395.9278,-155.5001 2385.9278,-159 2395.9277,-162.5001 2395.9278,-155.5001"/>
</g>
<!-- PlaylistDeleteComponent -->
<g id="node12" class="node">
<title>PlaylistDeleteComponent</title>
<polygon fill="#ffffb3" stroke="#000000" points="2855.8683,-122 2696.1317,-122 2696.1317,-86 2855.8683,-86 2855.8683,-122"/>
<text text-anchor="middle" x="2776" y="-99.8" font-family="Times,serif" font-size="14.00" fill="#000000">PlaylistDeleteComponent</text>
</g>
<!-- PlaylistDeleteComponent&#45;&gt;AppModule -->
<g id="edge12" class="edge">
<title>PlaylistDeleteComponent&#45;&gt;AppModule</title>
<path fill="none" stroke="#000000" d="M2776,-122.2396C2776,-137.5706 2776,-157 2776,-157 2776,-157 2395.8145,-157 2395.8145,-157"/>
<polygon fill="#000000" stroke="#000000" points="2395.8145,-153.5001 2385.8145,-157 2395.8145,-160.5001 2395.8145,-153.5001"/>
</g>
<!-- PlaylistDetailComponent -->
<g id="node13" class="node">
<title>PlaylistDetailComponent</title>
<polygon fill="#ffffb3" stroke="#000000" points="2677.5449,-122 2520.4551,-122 2520.4551,-86 2677.5449,-86 2677.5449,-122"/>
<text text-anchor="middle" x="2599" y="-99.8" font-family="Times,serif" font-size="14.00" fill="#000000">PlaylistDetailComponent</text>
</g>
<!-- PlaylistDetailComponent&#45;&gt;AppModule -->
<g id="edge13" class="edge">
<title>PlaylistDetailComponent&#45;&gt;AppModule</title>
<path fill="none" stroke="#000000" d="M2599,-122.0511C2599,-136.373 2599,-154 2599,-154 2599,-154 2395.8225,-154 2395.8225,-154"/>
<polygon fill="#000000" stroke="#000000" points="2395.8226,-150.5001 2385.8225,-154 2395.8225,-157.5001 2395.8226,-150.5001"/>
</g>
<!-- PlaylistEditComponent -->
<g id="node14" class="node">
<title>PlaylistEditComponent</title>
<polygon fill="#ffffb3" stroke="#000000" points="2502.1708,-122 2355.8292,-122 2355.8292,-86 2502.1708,-86 2502.1708,-122"/>
<text text-anchor="middle" x="2429" y="-99.8" font-family="Times,serif" font-size="14.00" fill="#000000">PlaylistEditComponent</text>
</g>
<!-- PlaylistEditComponent&#45;&gt;AppModule -->
<g id="edge14" class="edge">
<title>PlaylistEditComponent&#45;&gt;AppModule</title>
<path fill="none" stroke="#000000" d="M2370.7465,-122.1061C2370.7465,-122.1061 2370.7465,-140.991 2370.7465,-140.991"/>
<polygon fill="#000000" stroke="#000000" points="2367.2466,-140.9909 2370.7465,-150.991 2374.2466,-140.991 2367.2466,-140.9909"/>
</g>
<!-- PlaylistIndexComponent -->
<g id="node15" class="node">
<title>PlaylistIndexComponent</title>
<polygon fill="#ffffb3" stroke="#000000" points="2337.7119,-122 2182.2881,-122 2182.2881,-86 2337.7119,-86 2337.7119,-122"/>
<text text-anchor="middle" x="2260" y="-99.8" font-family="Times,serif" font-size="14.00" fill="#000000">PlaylistIndexComponent</text>
</g>
<!-- PlaylistIndexComponent&#45;&gt;AppModule -->
<g id="edge15" class="edge">
<title>PlaylistIndexComponent&#45;&gt;AppModule</title>
<path fill="none" stroke="#000000" d="M2319.8889,-122.1061C2319.8889,-122.1061 2319.8889,-140.991 2319.8889,-140.991"/>
<polygon fill="#000000" stroke="#000000" points="2316.3889,-140.9909 2319.8889,-150.991 2323.3889,-140.991 2316.3889,-140.9909"/>
</g>
<!-- RegistrationComponent -->
<g id="node16" class="node">
<title>RegistrationComponent</title>
<polygon fill="#ffffb3" stroke="#000000" points="2164.766,-122 2015.234,-122 2015.234,-86 2164.766,-86 2164.766,-122"/>
<text text-anchor="middle" x="2090" y="-99.8" font-family="Times,serif" font-size="14.00" fill="#000000">RegistrationComponent</text>
</g>
<!-- RegistrationComponent&#45;&gt;AppModule -->
<g id="edge16" class="edge">
<title>RegistrationComponent&#45;&gt;AppModule</title>
<path fill="none" stroke="#000000" d="M2090,-122.0511C2090,-136.373 2090,-154 2090,-154 2090,-154 2292.3415,-154 2292.3415,-154"/>
<polygon fill="#000000" stroke="#000000" points="2292.3415,-157.5001 2302.3415,-154 2292.3415,-150.5001 2292.3415,-157.5001"/>
</g>
<!-- SideNavComponent -->
<g id="node17" class="node">
<title>SideNavComponent</title>
<polygon fill="#ffffb3" stroke="#000000" points="1996.5422,-122 1867.4578,-122 1867.4578,-86 1996.5422,-86 1996.5422,-122"/>
<text text-anchor="middle" x="1932" y="-99.8" font-family="Times,serif" font-size="14.00" fill="#000000">SideNavComponent</text>
</g>
<!-- SideNavComponent&#45;&gt;AppModule -->
<g id="edge17" class="edge">
<title>SideNavComponent&#45;&gt;AppModule</title>
<path fill="none" stroke="#000000" d="M1932,-122.2396C1932,-137.5706 1932,-157 1932,-157 1932,-157 2292.2279,-157 2292.2279,-157"/>
<polygon fill="#000000" stroke="#000000" points="2292.228,-160.5001 2302.2279,-157 2292.2279,-153.5001 2292.228,-160.5001"/>
</g>
<!-- SongCreateComponent -->
<g id="node18" class="node">
<title>SongCreateComponent</title>
<polygon fill="#ffffb3" stroke="#000000" points="1849.147,-122 1702.853,-122 1702.853,-86 1849.147,-86 1849.147,-122"/>
<text text-anchor="middle" x="1776" y="-99.8" font-family="Times,serif" font-size="14.00" fill="#000000">SongCreateComponent</text>
</g>
<!-- SongCreateComponent&#45;&gt;AppModule -->
<g id="edge18" class="edge">
<title>SongCreateComponent&#45;&gt;AppModule</title>
<path fill="none" stroke="#000000" d="M1776,-122.0091C1776,-138.0494 1776,-159 1776,-159 1776,-159 2292.2336,-159 2292.2336,-159"/>
<polygon fill="#000000" stroke="#000000" points="2292.2336,-162.5001 2302.2336,-159 2292.2336,-155.5001 2292.2336,-162.5001"/>
</g>
<!-- SongDeleteComponent -->
<g id="node19" class="node">
<title>SongDeleteComponent</title>
<polygon fill="#ffffb3" stroke="#000000" points="1684.147,-122 1537.853,-122 1537.853,-86 1684.147,-86 1684.147,-122"/>
<text text-anchor="middle" x="1611" y="-99.8" font-family="Times,serif" font-size="14.00" fill="#000000">SongDeleteComponent</text>
</g>
<!-- SongDeleteComponent&#45;&gt;AppModule -->
<g id="edge19" class="edge">
<title>SongDeleteComponent&#45;&gt;AppModule</title>
<path fill="none" stroke="#000000" d="M1611,-122.0336C1611,-139.0597 1611,-162 1611,-162 1611,-162 2292.2247,-162 2292.2247,-162"/>
<polygon fill="#000000" stroke="#000000" points="2292.2247,-165.5001 2302.2247,-162 2292.2246,-158.5001 2292.2247,-165.5001"/>
</g>
<!-- SongDetailComponent -->
<g id="node20" class="node">
<title>SongDetailComponent</title>
<polygon fill="#ffffb3" stroke="#000000" points="1520.323,-122 1375.677,-122 1375.677,-86 1520.323,-86 1520.323,-122"/>
<text text-anchor="middle" x="1448" y="-99.8" font-family="Times,serif" font-size="14.00" fill="#000000">SongDetailComponent</text>
</g>
<!-- SongDetailComponent&#45;&gt;AppModule -->
<g id="edge20" class="edge">
<title>SongDetailComponent&#45;&gt;AppModule</title>
<path fill="none" stroke="#000000" d="M1448,-122.002C1448,-139.6754 1448,-164 1448,-164 1448,-164 2292.2839,-164 2292.2839,-164"/>
<polygon fill="#000000" stroke="#000000" points="2292.284,-167.5001 2302.2839,-164 2292.2839,-160.5001 2292.284,-167.5001"/>
</g>
<!-- SongIndexComponent -->
<g id="node21" class="node">
<title>SongIndexComponent</title>
<polygon fill="#ffffb3" stroke="#000000" points="1357.9902,-122 1216.0098,-122 1216.0098,-86 1357.9902,-86 1357.9902,-122"/>
<text text-anchor="middle" x="1287" y="-99.8" font-family="Times,serif" font-size="14.00" fill="#000000">SongIndexComponent</text>
</g>
<!-- SongIndexComponent&#45;&gt;AppModule -->
<g id="edge21" class="edge">
<title>SongIndexComponent&#45;&gt;AppModule</title>
<path fill="none" stroke="#000000" d="M1287,-122.2222C1287,-140.8285 1287,-167 1287,-167 1287,-167 2292.2388,-167 2292.2388,-167"/>
<polygon fill="#000000" stroke="#000000" points="2292.2388,-170.5001 2302.2388,-167 2292.2388,-163.5001 2292.2388,-170.5001"/>
</g>
<!-- SongUpdateComponent -->
<g id="node22" class="node">
<title>SongUpdateComponent</title>
<polygon fill="#ffffb3" stroke="#000000" points="1198.0421,-122 1047.9579,-122 1047.9579,-86 1198.0421,-86 1198.0421,-122"/>
<text text-anchor="middle" x="1123" y="-99.8" font-family="Times,serif" font-size="14.00" fill="#000000">SongUpdateComponent</text>
</g>
<!-- SongUpdateComponent&#45;&gt;AppModule -->
<g id="edge22" class="edge">
<title>SongUpdateComponent&#45;&gt;AppModule</title>
<path fill="none" stroke="#000000" d="M1123,-122.1061C1123,-141.3391 1123,-169 1123,-169 1123,-169 2292.3236,-169 2292.3236,-169"/>
<polygon fill="#000000" stroke="#000000" points="2292.3237,-172.5001 2302.3236,-169 2292.3236,-165.5001 2292.3237,-172.5001"/>
</g>
<!-- AppComponent  -->
<g id="node25" class="node">
<title>AppComponent </title>
<polygon fill="#80b1d3" stroke="#000000" points="2398.439,-252 2289.561,-252 2289.561,-216 2398.439,-216 2398.439,-252"/>
<text text-anchor="middle" x="2344" y="-229.8" font-family="Times,serif" font-size="14.00" fill="#000000">AppComponent </text>
</g>
<!-- AppModule&#45;&gt;AppComponent  -->
<g id="edge24" class="edge">
<title>AppModule&#45;&gt;AppComponent </title>
<path fill="none" stroke="#000000" stroke-dasharray="1,5" d="M2344,-187.1061C2344,-187.1061 2344,-205.991 2344,-205.991"/>
<polygon fill="#000000" stroke="#000000" points="2340.5001,-205.9909 2344,-215.991 2347.5001,-205.991 2340.5001,-205.9909"/>
</g>
<!-- AppRoutingModule -->
<g id="node24" class="node">
<title>AppRoutingModule</title>
<polygon fill="#8dd3c7" stroke="#000000" points="1024.2744,-122 1021.2744,-126 1000.2744,-126 997.2744,-122 895.7256,-122 895.7256,-86 1024.2744,-86 1024.2744,-122"/>
<text text-anchor="middle" x="960" y="-99.8" font-family="Times,serif" font-size="14.00" fill="#000000">AppRoutingModule</text>
</g>
<!-- AppRoutingModule&#45;&gt;AppModule -->
<g id="edge23" class="edge">
<title>AppRoutingModule&#45;&gt;AppModule</title>
<path fill="none" stroke="#000000" d="M960,-122.2228C960,-142.3652 960,-172 960,-172 960,-172 2292.2026,-172 2292.2026,-172"/>
<polygon fill="#000000" stroke="#000000" points="2292.2026,-175.5001 2302.2026,-172 2292.2025,-168.5001 2292.2026,-175.5001"/>
</g>
<!-- AuthService -->
<g id="node26" class="node">
<title>AuthService</title>
<ellipse fill="#fdb462" stroke="#000000" cx="813" cy="-104" rx="59.1083" ry="18"/>
<text text-anchor="middle" x="813" y="-99.8" font-family="Times,serif" font-size="14.00" fill="#000000">AuthService</text>
</g>
<!-- AuthService&#45;&gt;AppModule -->
<g id="edge25" class="edge">
<title>AuthService&#45;&gt;AppModule</title>
<path fill="none" stroke="#000000" d="M813,-122.2843C813,-143.3211 813,-175 813,-175 813,-175 2292.2554,-175 2292.2554,-175"/>
<polygon fill="#000000" stroke="#000000" points="2292.2555,-178.5001 2302.2554,-175 2292.2554,-171.5001 2292.2555,-178.5001"/>
</g>
<!-- PlayControlsService -->
<g id="node27" class="node">
<title>PlayControlsService</title>
<ellipse fill="#fdb462" stroke="#000000" cx="645" cy="-104" rx="90.3448" ry="18"/>
<text text-anchor="middle" x="645" y="-99.8" font-family="Times,serif" font-size="14.00" fill="#000000">PlayControlsService</text>
</g>
<!-- PlayControlsService&#45;&gt;AppModule -->
<g id="edge26" class="edge">
<title>PlayControlsService&#45;&gt;AppModule</title>
<path fill="none" stroke="#000000" d="M645,-122.0449C645,-143.6623 645,-177 645,-177 645,-177 2292.002,-177 2292.002,-177"/>
<polygon fill="#000000" stroke="#000000" points="2292.002,-180.5001 2302.002,-177 2292.002,-173.5001 2292.002,-180.5001"/>
</g>
<!-- PlaylistCollectionService -->
<g id="node28" class="node">
<title>PlaylistCollectionService</title>
<ellipse fill="#fdb462" stroke="#000000" cx="427" cy="-104" rx="109.3991" ry="18"/>
<text text-anchor="middle" x="427" y="-99.8" font-family="Times,serif" font-size="14.00" fill="#000000">PlaylistCollectionService</text>
</g>
<!-- PlaylistCollectionService&#45;&gt;AppModule -->
<g id="edge27" class="edge">
<title>PlaylistCollectionService&#45;&gt;AppModule</title>
<path fill="none" stroke="#000000" d="M427,-122.0109C427,-144.4852 427,-180 427,-180 427,-180 2292.1779,-180 2292.1779,-180"/>
<polygon fill="#000000" stroke="#000000" points="2292.178,-183.5001 2302.1779,-180 2292.1779,-176.5001 2292.178,-183.5001"/>
</g>
<!-- PlaylistService -->
<g id="node29" class="node">
<title>PlaylistService</title>
<ellipse fill="#fdb462" stroke="#000000" cx="231" cy="-104" rx="68.9313" ry="18"/>
<text text-anchor="middle" x="231" y="-99.8" font-family="Times,serif" font-size="14.00" fill="#000000">PlaylistService</text>
</g>
<!-- PlaylistService&#45;&gt;AppModule -->
<g id="edge28" class="edge">
<title>PlaylistService&#45;&gt;AppModule</title>
<path fill="none" stroke="#000000" d="M231,-122.0908C231,-145.1328 231,-182 231,-182 231,-182 2292.267,-182 2292.267,-182"/>
<polygon fill="#000000" stroke="#000000" points="2292.267,-185.5001 2302.267,-182 2292.267,-178.5001 2292.267,-185.5001"/>
</g>
<!-- SongService -->
<g id="node30" class="node">
<title>SongService</title>
<ellipse fill="#fdb462" stroke="#000000" cx="84" cy="-104" rx="59.6916" ry="18"/>
<text text-anchor="middle" x="84" y="-99.8" font-family="Times,serif" font-size="14.00" fill="#000000">SongService</text>
</g>
<!-- SongService&#45;&gt;AppModule -->
<g id="edge29" class="edge">
<title>SongService&#45;&gt;AppModule</title>
<path fill="none" stroke="#000000" d="M84,-122.3802C84,-146.2785 84,-185 84,-185 84,-185 2291.8633,-185 2291.8633,-185"/>
<polygon fill="#000000" stroke="#000000" points="2291.8634,-188.5001 2301.8633,-185 2291.8633,-181.5001 2291.8634,-188.5001"/>
</g>
</g>
</svg>
